<?xml version="1.0" encoding="utf-8"?>
<!-- Generator: Adobe Illustrator 15.1.0, SVG Export Plug-In . SVG Version: 6.00 Build 0)  -->
<!DOCTYPE svg PUBLIC "-//W3C//DTD SVG 1.1//EN" "http://www.w3.org/Graphics/SVG/1.1/DTD/svg11.dtd">
<svg version="1.1" id="Layer_1" xmlns="http://www.w3.org/2000/svg" xmlns:xlink="http://www.w3.org/1999/xlink" x="0px" y="0px"
	 width="432px" height="288px" viewBox="0 0 432 288" enable-background="new 0 0 432 288" xml:space="preserve">
<radialGradient id="SVGID_1_" cx="211.999" cy="179.999" r="993.5646" gradientTransform="matrix(0.8 0 0 0.8 46.4 0)" gradientUnits="userSpaceOnUse">
	<stop  offset="0" style="stop-color:#FFFFFF"/>
	<stop  offset="1" style="stop-color:#996EFF"/>
</radialGradient>
<rect fill="url(#SVGID_1_)" width="432" height="288"/>
<g>
	<text transform="matrix(1 0 0 1 106.5 185.5)" font-family="'Roboto-Light'" font-size="30">6</text>
	<text transform="matrix(1 0 0 1 148.9678 185.5)" font-family="'Roboto-Light'" font-size="30">2</text>
	<line fill="none" stroke="#000000" stroke-width="2" stroke-miterlimit="10" x1="127.674" y1="176.79" x2="136.826" y2="184.71"/>
	<line fill="none" stroke="#000000" stroke-width="0.75" stroke-miterlimit="10" x1="147.5" y1="160.371" x2="136.53" y2="185.72"/>
	<line fill="none" stroke="#000000" stroke-miterlimit="10" x1="147" y1="160.5" x2="177" y2="160.5"/>
	<text transform="matrix(1 0 0 1 38.2563 175.0313)" font-family="'Roboto-LightItalic'" font-size="65.2948">v</text>
	<text transform="matrix(1 0 0 1 74.5 168.9707)" font-family="'Roboto-Light'" font-size="36">=</text>
	<text transform="matrix(1 0 0 1 127 150.0996)" font-family="'Roboto-Light'" font-size="36">a</text>
	<text transform="matrix(1 0 0 1 144 131.5996)" font-family="'Roboto-Light'" font-size="18">3</text>
	<line fill="none" stroke="#000000" stroke-miterlimit="10" x1="99" y1="156.5" x2="180" y2="156.5"/>
</g>
<text transform="matrix(1 0 0 1 99.5 35.75)" fill="#0636CC" font-family="'Roboto-Light'" font-size="24">Volume of a tetrahedron</text>
<g>
	<line fill="none" stroke="#000000" stroke-miterlimit="10" x1="219" y1="237.5" x2="405" y2="237.5"/>
	<line fill="none" stroke="#000000" stroke-miterlimit="10" x1="219.129" y1="237.009" x2="312.539" y2="76.167"/>
	<line fill="none" stroke="#000000" stroke-miterlimit="10" x1="313.079" y1="75.237" x2="404.871" y2="237.008"/>
	<line fill="none" stroke="#000000" stroke-miterlimit="10" x1="312.5" y1="75" x2="312.5" y2="161"/>
	<line fill="none" stroke="#000000" stroke-miterlimit="10" x1="312.392" y1="160.578" x2="219" y2="237.5"/>
	<line fill="none" stroke="#000000" stroke-miterlimit="10" x1="312.459" y1="161.035" x2="342.117" y2="185.596"/>
	<line fill="none" stroke="#000000" stroke-miterlimit="10" x1="353.319" y1="194.701" x2="405.117" y2="237.596"/>
	<text transform="matrix(1 0 0 1 343.4395 192.667)" font-family="'Roboto-Light'" font-size="14">a</text>
</g>
<g>
	<text transform="matrix(1 0 0 1 343.1367 283.7363)" font-family="'ArialMT'" font-size="11.7028">w3resource.com</text>
	<path fill-rule="evenodd" clip-rule="evenodd" d="M336.455,275.083c0.306,0,0.612,0,0.921,0c2.844,0.432,4.482,2.072,4.921,4.913
		c0,0.308,0,0.614,0,0.924c-0.438,2.841-2.077,4.479-4.921,4.918c-0.309,0-0.615,0-0.921,0c-2.842-0.439-4.479-2.077-4.915-4.918
		c0-0.31,0-0.616,0-0.924C331.976,277.155,333.613,275.515,336.455,275.083z M334.814,276.655c-0.49,0.279-0.862,0.581-1.197,0.969
		c-0.648,0.755-1.164,1.784-1.028,3.276c0.114,1.25,0.691,2.179,1.469,2.855c0.792,0.69,1.948,1.138,3.282,1.029
		c1.273-0.105,2.184-0.696,2.854-1.468c0.675-0.782,1.178-1.849,1.069-3.279c-0.098-1.274-0.76-2.228-1.473-2.855
		c-0.737-0.658-1.887-1.167-3.296-1.054C335.849,276.185,335.281,276.391,334.814,276.655z"/>
	<path fill-rule="evenodd" clip-rule="evenodd" d="M339.08,278.295c-0.232,0.262-0.503,0.488-0.737,0.755
		c-0.371-0.308-0.664-0.545-1.194-0.588c-1.293-0.108-2.328,0.794-2.231,2.208c0.078,1.02,0.942,1.9,2.209,1.786
		c0.459-0.046,0.743-0.27,1.092-0.467c0.175,0.304,0.425,0.529,0.589,0.844c-0.616,0.426-1.248,0.723-2.187,0.651
		c-1.615-0.123-2.866-1.52-2.729-3.32c0.107-1.434,1.244-2.606,2.688-2.729C337.762,277.332,338.47,277.776,339.08,278.295z"/>
</g>
</svg>
